<svg xmlns="http://www.w3.org/2000/svg" width="24" height="24" viewBox="0 0 24 24" fill="#333"><path d="M12 2C6.48 2 2 6.48 2 12s4.48 10 10 10 10-4.48 10-10S17.52 2 12 2zm-1 17.93c-3.95-.49-7-3.85-7-7.93 0-.62.08-1.21.21-1.79L8 16v1c0 1.1.9 2 2 2v.93zM12.5 9.5c0-.83-.67-1.5-1.5-1.5s-1.5.67-1.5 1.5.67 1.5 1.5 1.5 1.5-.67 1.5-1.5zM13 17v-1c0-1.1-.9-2-2-2h-2v2c0 .55.45 1 1 1h2c.55 0 1-.45 1-1zm6.79-5.21c.13.58.21 1.17.21 1.79 0 4.08-3.05 7.44-7 7.93V19c0-1.1-.9-2-2-2h-2v-2h6c1.1 0 2-.9 2-2V9.21c.94.38 1.5 1.34 1.5 2.41 0 .33-.04.65-.11.96l.32.32z"/></svg>