<?xml version="1.0" encoding="UTF-8"?>
<svg version="1.1" xmlns="http://www.w3.org/2000/svg" width="44" height="53">
<path d="M0 0 C1.33463727 -0.01216847 2.66927273 -0.02453698 4.00390625 -0.03710938 C5.26074219 -0.03904297 6.51757812 -0.04097656 7.8125 -0.04296875 C8.95332031 -0.04707764 10.09414063 -0.05118652 11.26953125 -0.05541992 C14 0.1875 14 0.1875 16 2.1875 C16.26069641 4.10946655 16.26069641 4.10946655 16.2746582 6.48193359 C16.28895622 7.81374161 16.28895622 7.81374161 16.30354309 9.17245483 C16.30263168 10.13390411 16.30172028 11.09535339 16.30078125 12.0859375 C16.30506638 13.07244293 16.3093515 14.05894836 16.31376648 15.0753479 C16.31951689 17.16513297 16.32000483 19.25493807 16.31567383 21.34472656 C16.31251956 24.54266593 16.33594465 27.7396755 16.36132812 30.9375 C16.3636016 32.96614466 16.36430439 34.99479182 16.36328125 37.0234375 C16.372491 37.98083832 16.38170074 38.93823914 16.39118958 39.9246521 C16.38496078 40.81882843 16.37873199 41.71300476 16.37231445 42.63427734 C16.37294388 43.41878265 16.3735733 44.20328796 16.3742218 45.01156616 C15.90113175 47.76237504 14.87165602 49.14573041 13 51.1875 C8.92544089 52.55078726 4.62487686 52.34859325 0.36328125 52.35546875 C-0.71769585 52.36046135 -0.71769585 52.36046135 -1.82051086 52.36555481 C-3.33581914 52.37059656 -4.85113842 52.37296399 -6.36645508 52.37280273 C-8.69044955 52.37500279 -11.01397915 52.39322376 -13.33789062 52.41210938 C-14.81249838 52.41504112 -16.28710838 52.41702738 -17.76171875 52.41796875 C-18.45754562 52.42515427 -19.1533725 52.43233978 -19.87028503 52.43974304 C-24.77115589 52.41634411 -24.77115589 52.41634411 -27 50.1875 C-27.25396729 48.22084045 -27.25396729 48.22084045 -27.25878906 45.78540039 C-27.26509338 44.87427994 -27.27139771 43.96315948 -27.27789307 43.02442932 C-27.2738446 42.03796921 -27.26979614 41.05150909 -27.265625 40.03515625 C-27.26753845 39.0240831 -27.2694519 38.01300995 -27.27142334 36.97129822 C-27.27278603 34.83022819 -27.26908375 32.68914992 -27.26074219 30.5480957 C-27.25005505 27.26690112 -27.26062906 23.98625546 -27.2734375 20.70507812 C-27.2721157 18.62760295 -27.26955289 16.55012813 -27.265625 14.47265625 C-27.26967346 13.48822037 -27.27372192 12.50378448 -27.27789307 11.48951721 C-27.27158875 10.5752446 -27.26528442 9.66097198 -27.25878906 8.71899414 C-27.25719788 7.91450333 -27.25560669 7.11001251 -27.25396729 6.28114319 C-27 4.1875 -27 4.1875 -25 1.1875 C-17.20206847 -0.93538425 -8.00652126 0.00399926 0 0 Z " fill="#EDE0DC" transform="translate(28,-0.1875)"/>
<path d="M0 0 C0.33 0 0.66 0 1 0 C1.04953293 5.32021739 1.08578256 10.64029976 1.10986328 15.96069336 C1.11990487 17.76963643 1.1335408 19.57856333 1.15087891 21.38745117 C1.17520832 23.99141435 1.18650161 26.59516242 1.1953125 29.19921875 C1.20563507 30.00461594 1.21595764 30.81001312 1.22659302 31.63981628 C1.22743729 35.88969226 0.96516229 39.12067443 -1 43 C-1.99 42.505 -1.99 42.505 -3 42 C-3.34153937 40.33499557 -3.67449498 38.66821323 -4 37 C-4.66 36.34 -5.32 35.68 -6 35 C-5.01 34.34 -4.02 33.68 -3 33 C-6.60992379 33.65585189 -6.60992379 33.65585189 -10 35 C-10 34.01 -10 33.02 -10 32 C-8.35 31.34 -6.7 30.68 -5 30 C-5.495 29.01 -5.495 29.01 -6 28 C-6.70769531 28.48082031 -7.41539063 28.96164063 -8.14453125 29.45703125 C-11.22669811 31.12249761 -13.21773308 31.47903603 -16.6875 31.6875 C-18.24791016 31.78417969 -18.24791016 31.78417969 -19.83984375 31.8828125 C-24.23372593 32.04575003 -28.60347515 32.06465478 -33 32 C-33.66 35.3 -34.32 38.6 -35 42 C-35.66 42 -36.32 42 -37 42 C-37 43.65 -37 45.3 -37 47 C-36.19780029 46.98952637 -35.39560059 46.97905273 -34.5690918 46.96826172 C-30.94192628 46.92674233 -27.31481072 46.90068657 -23.6875 46.875 C-22.42486328 46.85824219 -21.16222656 46.84148438 -19.86132812 46.82421875 C-18.04858398 46.81455078 -18.04858398 46.81455078 -16.19921875 46.8046875 C-15.08377686 46.79421387 -13.96833496 46.78374023 -12.8190918 46.77294922 C-10 47 -10 47 -7 49 C-17.23 49 -27.46 49 -38 49 C-38.02298224 43.39488663 -38.04288797 37.78993744 -38.05493164 32.18481445 C-38.05995364 30.27888433 -38.06677248 28.37295805 -38.07543945 26.46704102 C-38.08759846 23.72411144 -38.09324971 20.9812329 -38.09765625 18.23828125 C-38.10281754 17.38913651 -38.10797882 16.53999176 -38.11329651 15.66511536 C-38.11367627 11.64056952 -38.0089224 7.92746608 -37 4 C-34 5 -34 5 -32.76171875 6.96875 C-29.10600214 15.58294769 -30.63456158 20.62439249 -34 29 C-33.22809326 28.66677734 -32.45618652 28.33355469 -31.66088867 27.99023438 C-28.79456175 26.75592059 -25.92621012 25.52647573 -23.05639648 24.30029297 C-21.81500279 23.76870727 -20.5744337 23.23519155 -19.3347168 22.69970703 C-17.55215191 21.93014157 -15.76634771 21.1680931 -13.98046875 20.40625 C-12.90692139 19.94541016 -11.83337402 19.48457031 -10.72729492 19.00976562 C-8 18 -8 18 -5 18 C-5.226875 17.071875 -5.45375 16.14375 -5.6875 15.1875 C-6 12 -6 12 -4.6875 10.1875 C-3 9 -3 9 -1 8 C-0.53476937 6.10466658 -0.53476937 6.10466658 -0.375 3.9375 C-0.189375 1.9884375 -0.189375 1.9884375 0 0 Z " fill="#DBEFF7" transform="translate(41,3)"/>
<path d="M0 0 C0.66 0 1.32 0 2 0 C2.07606171 6.335371 2.12860457 12.67062424 2.16479492 19.00634766 C2.17988182 21.16166586 2.20035389 23.31695336 2.22631836 25.47216797 C2.26270544 28.57006404 2.27972739 31.66755423 2.29296875 34.765625 C2.30845261 35.72929993 2.32393646 36.69297485 2.33988953 37.68585205 C2.34011612 38.58648376 2.34034271 39.48711548 2.34057617 40.41503906 C2.34723801 41.20557678 2.35389984 41.9961145 2.36076355 42.81060791 C1.89896634 45.61315034 0.95925818 46.96368888 -1 49 C-4.87641726 49.89988258 -7.20519658 50.26493447 -11 49 C-13.06362991 48.84970012 -15.13123915 48.75155552 -17.19921875 48.68359375 C-18.40771484 48.64169922 -19.61621094 48.59980469 -20.86132812 48.55664062 C-22.7552832 48.49766602 -22.7552832 48.49766602 -24.6875 48.4375 C-25.96173828 48.39431641 -27.23597656 48.35113281 -28.54882812 48.30664062 C-31.69910852 48.2004514 -34.84946839 48.09840467 -38 48 C-38 46.35 -38 44.7 -38 43 C-37.34 43 -36.68 43 -36 43 C-35.34 39.7 -34.68 36.4 -34 33 C-31.70482422 32.83564453 -31.70482422 32.83564453 -29.36328125 32.66796875 C-27.34630075 32.50848657 -25.32937642 32.34829304 -23.3125 32.1875 C-22.30509766 32.11724609 -21.29769531 32.04699219 -20.25976562 31.97460938 C-15.02384637 31.54260284 -11.38647727 31.11788303 -7 28 C-6.34 28.33 -5.68 28.66 -5 29 C-5 29.99 -5 30.98 -5 32 C-7.97 32.495 -7.97 32.495 -11 33 C-10.67 33.66 -10.34 34.32 -10 35 C-9.34 34.34 -8.68 33.68 -8 33 C-5.375 33.375 -5.375 33.375 -3 34 C-3.66 34.99 -4.32 35.98 -5 37 C-4.19595537 40.1628485 -4.19595537 40.1628485 -3 43 C-0.30055008 39.00291977 -0.6503561 34.72042033 -0.5859375 30.078125 C-0.56657135 29.21813904 -0.5472052 28.35815308 -0.5272522 27.47210693 C-0.46758186 24.73150479 -0.4211214 21.99086036 -0.375 19.25 C-0.33680866 17.38930483 -0.29775625 15.52862712 -0.2578125 13.66796875 C-0.16189065 9.11212136 -0.07781332 4.55619121 0 0 Z " fill="#CADCE6" transform="translate(42,2)"/>
<path d="M0 0 C4.05819183 0.65503282 7.53971282 1.94559121 11.3125 3.5625 C12.38113281 4.01753906 13.44976562 4.47257813 14.55078125 4.94140625 C15.76314453 5.46541016 15.76314453 5.46541016 17 6 C18.38071384 15.20475892 18.38071384 15.20475892 17 18 C14.68155266 19.29263816 12.5745559 20.29169071 10.125 21.25 C9.48691406 21.518125 8.84882813 21.78625 8.19140625 22.0625 C5.30898305 23.24194665 3.14148355 24 0 24 C0.23976563 23.31035156 0.47953125 22.62070312 0.7265625 21.91015625 C2.85332236 15.16925217 3.17446891 10.69577317 1 4 C0.65852971 2.66872733 0.32277471 1.33592866 0 0 Z " fill="#26AADF" transform="translate(7,8)"/>
<path d="M0 0 C0 0.33 0 0.66 0 1 C-3.3 1.33 -6.6 1.66 -10 2 C-10.33 2.99 -10.66 3.98 -11 5 C-11.7425 4.979375 -12.485 4.95875 -13.25 4.9375 C-15.91391523 4.88746913 -15.91391523 4.88746913 -18.0625 5.5625 C-20.35616685 6.08042477 -21.78601575 5.7116378 -24 5 C-24.33 5.66 -24.66 6.32 -25 7 C-25.66 6.67 -26.32 6.34 -27 6 C-27.33 20.52 -27.66 35.04 -28 50 C-28.66 49.67 -29.32 49.34 -30 49 C-30.05064837 42.50385868 -30.0857117 36.00776815 -30.10986328 29.51147461 C-30.11993006 27.30084327 -30.13358448 25.09022528 -30.15087891 22.87963867 C-30.17509738 19.70488189 -30.18647627 16.53030094 -30.1953125 13.35546875 C-30.20563507 12.36475876 -30.21595764 11.37404877 -30.22659302 10.35331726 C-30.22674408 9.43258926 -30.22689514 8.51186127 -30.22705078 7.56323242 C-30.231492 6.7527092 -30.23593323 5.94218597 -30.24050903 5.10710144 C-30 3 -30 3 -28 0 C-19.4818938 -2.66190819 -8.76861022 -0.62087109 0 0 Z " fill="#D8BAB8" transform="translate(31,1)"/>
<path d="M0 0 C0.66 0.33 1.32 0.66 2 1 C2 1.99 2 2.98 2 4 C0.02 4.33 -1.96 4.66 -4 5 C-3.67 5.66 -3.34 6.32 -3 7 C-2.34 6.34 -1.68 5.68 -1 5 C1.625 5.375 1.625 5.375 4 6 C3.01 7.485 3.01 7.485 2 9 C2 10.32 2 11.64 2 13 C1 14 1 14 -1.50390625 14.09765625 C-3.01791016 14.08025391 -3.01791016 14.08025391 -4.5625 14.0625 C-5.57441406 14.05347656 -6.58632813 14.04445313 -7.62890625 14.03515625 C-8.80259766 14.01775391 -8.80259766 14.01775391 -10 14 C-10.33 13.34 -10.66 12.68 -11 12 C-11.33 12.66 -11.66 13.32 -12 14 C-12.5775 13.814375 -13.155 13.62875 -13.75 13.4375 C-16.30393357 12.7761831 -16.30393357 12.7761831 -20 14 C-19.01 10.7 -18.02 7.4 -17 4 C-15.78763672 3.94392578 -15.78763672 3.94392578 -14.55078125 3.88671875 C-13.48214844 3.82097656 -12.41351563 3.75523438 -11.3125 3.6875 C-10.25675781 3.62949219 -9.20101563 3.57148437 -8.11328125 3.51171875 C-4.76515766 2.96139982 -2.84234539 1.7770881 0 0 Z " fill="#E3EFF8" transform="translate(35,30)"/>
<path d="M0 0 C0.99 0.33 1.98 0.66 3 1 C3.33 5.29 3.66 9.58 4 14 C2.68 14 1.36 14 0 14 C0 20.6 0 27.2 0 34 C0.66 34 1.32 34 2 34 C2 32.35 2 30.7 2 29 C2.66 28.67 3.32 28.34 4 28 C3.34 31.3 2.68 34.6 2 38 C1.34 38 0.68 38 0 38 C0 39.65 0 41.3 0 43 C0.80219971 42.98952637 1.60439941 42.97905273 2.4309082 42.96826172 C6.05807372 42.92674233 9.68518928 42.90068657 13.3125 42.875 C14.57513672 42.85824219 15.83777344 42.84148438 17.13867188 42.82421875 C18.95141602 42.81455078 18.95141602 42.81455078 20.80078125 42.8046875 C21.91622314 42.79421387 23.03166504 42.78374023 24.1809082 42.77294922 C27 43 27 43 30 45 C19.77 45 9.54 45 -1 45 C-1.02298224 39.39488663 -1.04288797 33.78993744 -1.05493164 28.18481445 C-1.05995364 26.27888433 -1.06677248 24.37295805 -1.07543945 22.46704102 C-1.08759846 19.72411144 -1.09324971 16.9812329 -1.09765625 14.23828125 C-1.10281754 13.38913651 -1.10797882 12.53999176 -1.11329651 11.66511536 C-1.11367627 7.64056952 -1.0089224 3.92746608 0 0 Z " fill="#EBEEF3" transform="translate(4,7)"/>
<path d="M0 0 C1.32 0 2.64 0 4 0 C4.33 0.99 4.66 1.98 5 3 C5.33 2.34 5.66 1.68 6 1 C7.32 1 8.64 1 10 1 C10 3.64 10 6.28 10 9 C9.01 9 8.02 9 7 9 C6.67 8.34 6.34 7.68 6 7 C5.67 7.66 5.34 8.32 5 9 C4.4225 8.814375 3.845 8.62875 3.25 8.4375 C0.69606643 7.7761831 0.69606643 7.7761831 -3 9 C-2.01 6.03 -1.02 3.06 0 0 Z " fill="#9C1F27" transform="translate(18,35)"/>
<path d="M0 0 C1.4540625 0.0309375 1.4540625 0.0309375 2.9375 0.0625 C2.54054363 1.69242692 2.11917507 3.31642235 1.6875 4.9375 C1.33945312 6.29488281 1.33945312 6.29488281 0.984375 7.6796875 C-0.0625 10.0625 -0.0625 10.0625 -1.984375 11.3828125 C-4.0625 12.0625 -4.0625 12.0625 -7.0625 12.0625 C-6.58744322 10.24891846 -6.10733958 8.43665821 -5.625 6.625 C-5.35816406 5.61566406 -5.09132813 4.60632813 -4.81640625 3.56640625 C-3.76572911 0.07685161 -3.76572911 0.07685161 0 0 Z " fill="#0A77B4" transform="translate(14.0625,19.9375)"/>
<path d="M0 0 C1.62566606 0.47690204 3.25051311 0.95659666 4.875 1.4375 C5.77992187 1.70433594 6.68484375 1.97117187 7.6171875 2.24609375 C10 3 10 3 12 4 C12 4.66 12 5.32 12 6 C10.40084119 6.69906942 8.79544955 7.38389468 7.1875 8.0625 C6.29417969 8.44535156 5.40085937 8.82820313 4.48046875 9.22265625 C2 10 2 10 -1 9 C-0.835 8.071875 -0.67 7.14375 -0.5 6.1875 C0.07748388 3.04378647 0.07748388 3.04378647 0 0 Z " fill="#AB353E" transform="translate(24,15)"/>
<path d="M0 0 C2.83022097 3.99560608 1.76210446 7.42737323 1 12 C-1.90600261 13.25664978 -3.79604584 14 -7 14 C-6.34 11.36 -5.68 8.72 -5 6 C-3.35 6 -1.7 6 0 6 C0 4.02 0 2.04 0 0 Z " fill="#3379A9" transform="translate(23,14)"/>
<path d="M0 0 C2.31 0 4.62 0 7 0 C7 0.99 7 1.98 7 3 C6.01 3.495 6.01 3.495 5 4 C5 5.65 5 7.3 5 9 C2.69 9 0.38 9 -2 9 C-1.34 6.03 -0.68 3.06 0 0 Z " fill="#A63D45" transform="translate(8,35)"/>
<path d="M0 0 C2.625 0.375 2.625 0.375 5 1 C4.01 2.485 4.01 2.485 3 4 C3 5.32 3 6.64 3 8 C2 9 2 9 -1.0625 9.0625 C-2.031875 9.041875 -3.00125 9.02125 -4 9 C-4 8.34 -4 7.68 -4 7 C-3.34 6.67 -2.68 6.34 -2 6 C-2 4.68 -2 3.36 -2 2 C-1.34 1.34 -0.68 0.68 0 0 Z " fill="#951D28" transform="translate(34,35)"/>
<path d="M0 0 C3.10493538 3.10493538 3.70022332 6.68321577 4 11 C3.33780485 14.16329194 2.2991604 17.0454578 1 20 C0.34 20 -0.32 20 -1 20 C-0.835 18.741875 -0.67 17.48375 -0.5 16.1875 C0.11073012 10.7855491 0.09133564 5.42939662 0 0 Z " fill="#BFECFA" transform="translate(7,10)"/>
<path d="M0 0 C2.475 0.495 2.475 0.495 5 1 C5 1.99 5 2.98 5 4 C4.34 3.67 3.68 3.34 3 3 C3.99 4.485 3.99 4.485 5 6 C5.125 8.6875 5.125 8.6875 5 11 C6.65 11 8.3 11 10 11 C10 11.33 10 11.66 10 12 C8.02 12 6.04 12 4 12 C3.3291288 10.3767313 2.66342971 8.75132422 2 7.125 C1.62875 6.22007813 1.2575 5.31515625 0.875 4.3828125 C0 2 0 2 0 0 Z " fill="#21A5DA" transform="translate(7,8)"/>
<path d="M0 0 C0.33 1.32 0.66 2.64 1 4 C1.99 4 2.98 4 4 4 C4.33 3.01 4.66 2.02 5 1 C5.33 1.99 5.66 2.98 6 4 C6.99 4.33 7.98 4.66 9 5 C5.98509443 6.00496852 3.95818308 6.10335303 0.8125 6.0625 C-0.53908203 6.04896484 -0.53908203 6.04896484 -1.91796875 6.03515625 C-2.60503906 6.02355469 -3.29210938 6.01195312 -4 6 C-4 5.34 -4 4.68 -4 4 C-3.01 3.67 -2.02 3.34 -1 3 C-0.67 2.01 -0.34 1.02 0 0 Z " fill="#E5C1CA" transform="translate(19,40)"/>
<path d="M0 0 C0.99 0 1.98 0 3 0 C2.44271087 3.34373475 1.64826111 6.03312999 0 9 C-0.66 9 -1.32 9 -2 9 C-2 8.34 -2 7.68 -2 7 C-2.99 6.67 -3.98 6.34 -5 6 C-4.01 6 -3.02 6 -2 6 C-2 5.34 -2 4.68 -2 4 C-2.66 3.67 -3.32 3.34 -4 3 C-2.68 3 -1.36 3 0 3 C0 2.01 0 1.02 0 0 Z " fill="#EDC8D3" transform="translate(15,35)"/>
<path d="M0 0 C1.32 0 2.64 0 4 0 C3.37312706 2.92540704 2.64872507 5.4835249 1 8 C-0.32 8.33 -1.64 8.66 -3 9 C-2.01 6.03 -1.02 3.06 0 0 Z " fill="#9B2D36" transform="translate(18,35)"/>
<path d="M0 0 C2.475 0.495 2.475 0.495 5 1 C5.66 3.31 6.32 5.62 7 8 C5.35 8 3.7 8 2 8 C1.34 5.36 0.68 2.72 0 0 Z " fill="#03ADEF" transform="translate(10,11)"/>
<path d="M0 0 C1.32 0 2.64 0 4 0 C4 0.66 4 1.32 4 2 C4.680625 2.103125 5.36125 2.20625 6.0625 2.3125 C9.62915989 3.14725019 12.66222194 4.49472754 16 6 C15.67 6.66 15.34 7.32 15 8 C7.575 5.03 7.575 5.03 0 2 C0 1.34 0 0.68 0 0 Z " fill="#C6E4EF" transform="translate(7,6)"/>
<path d="M0 0 C0.33 0.99 0.66 1.98 1 3 C0.01 3.495 0.01 3.495 -1 4 C-1 4.66 -1 5.32 -1 6 C-2.2065625 5.9690625 -2.2065625 5.9690625 -3.4375 5.9375 C-5.93354885 5.70366379 -5.93354885 5.70366379 -7 7 C-8.66617115 7.04063832 -10.33388095 7.042721 -12 7 C-8.24532309 3.94063363 -4.91886939 2 0 2 C0 1.34 0 0.68 0 0 Z " fill="#EDDEE9" transform="translate(36,19)"/>
<path d="M0 0 C1.65 0 3.3 0 5 0 C5.33 0.99 5.66 1.98 6 3 C5.34 3 4.68 3 4 3 C4 3.66 4 4.32 4 5 C2.68 5 1.36 5 0 5 C0 3.35 0 1.7 0 0 Z " fill="#D01E25" transform="translate(26,17)"/>
<path d="M0 0 C1.32 0 2.64 0 4 0 C4.268125 0.598125 4.53625 1.19625 4.8125 1.8125 C5.98493467 3.97224808 7.19369282 5.35790256 9 7 C7.68 7 6.36 7 5 7 C5 7.66 5 8.32 5 9 C4.34 9 3.68 9 3 9 C3 6.36 3 3.72 3 1 C2.01 0.67 1.02 0.34 0 0 Z " fill="#E3AAB3" transform="translate(25,35)"/>
<path d="M0 0 C2.625 0.375 2.625 0.375 5 1 C4.67 1.66 4.34 2.32 4 3 C2.66923011 3.34342449 1.33568021 3.67619874 0 4 C-0.66 4.66 -1.32 5.32 -2 6 C-2 2 -2 2 0 0 Z " fill="#993A45" transform="translate(34,35)"/>
<path d="M0 0 C0.33 0 0.66 0 1 0 C1 1.65 1 3.3 1 5 C2.32 5.33 3.64 5.66 5 6 C2.35261084 7.4606285 1.10551666 8 -2 8 C-1.34 5.36 -0.68 2.72 0 0 Z " fill="#2B7FAD" transform="translate(9,24)"/>
<path d="M0 0 C1.32 0 2.64 0 4 0 C4 1.65 4 3.3 4 5 C2.35 5 0.7 5 -1 5 C-0.67 3.35 -0.34 1.7 0 0 Z " fill="#941921" transform="translate(9,39)"/>
<path d="M0 0 C0.33 0 0.66 0 1 0 C1.33 2.64 1.66 5.28 2 8 C0.02 8.99 0.02 8.99 -2 10 C-1.54177532 6.53058454 -1.10868317 3.32604951 0 0 Z " fill="#CAE9F1" transform="translate(41,41)"/>
<path d="M0 0 C3.63 0 7.26 0 11 0 C9.02 0.99 9.02 0.99 7 2 C5.29078411 3.5412312 5.29078411 3.5412312 4 5 C4 3.68 4 2.36 4 1 C2.68 0.67 1.36 0.34 0 0 Z " fill="#F3D8DE" transform="translate(18,34)"/>
<path d="M0 0 C1.65 0.99 3.3 1.98 5 3 C4.67 3.99 4.34 4.98 4 6 C2.68 6 1.36 6 0 6 C0 4.02 0 2.04 0 0 Z " fill="#0574AB" transform="translate(10,23)"/>
<path d="M0 0 C2.64 0 5.28 0 8 0 C7.34 1.32 6.68 2.64 6 4 C5.34 4 4.68 4 4 4 C4 3.01 4 2.02 4 1 C2.68 0.67 1.36 0.34 0 0 Z " fill="#E6D5CF" transform="translate(5,1)"/>
</svg>
